<?xml version="1.0" encoding="UTF-8" standalone="no"?>
<!-- Created with Inkscape (http://www.inkscape.org/) -->

<svg
   xmlns:dc="http://purl.org/dc/elements/1.1/"
   xmlns:cc="http://creativecommons.org/ns#"
   xmlns:rdf="http://www.w3.org/1999/02/22-rdf-syntax-ns#"
   xmlns:svg="http://www.w3.org/2000/svg"
   xmlns="http://www.w3.org/2000/svg"
   xmlns:sodipodi="http://sodipodi.sourceforge.net/DTD/sodipodi-0.dtd"
   xmlns:inkscape="http://www.inkscape.org/namespaces/inkscape"
   width="600"
   height="200"
   id="svg2"
   version="1.1"
   inkscape:version="0.48.4 r9939"
   sodipodi:docname="waka.svg"
   inkscape:export-filename="C:\Users\g\Desktop\waka\waka.png"
   inkscape:export-xdpi="90"
   inkscape:export-ydpi="90">
  <defs
     id="defs4" />
  <sodipodi:namedview
     id="base"
     pagecolor="#ffffff"
     bordercolor="#666666"
     borderopacity="1.0"
     inkscape:pageopacity="0.0"
     inkscape:pageshadow="2"
     inkscape:zoom="1.0074671"
     inkscape:cx="499.42647"
     inkscape:cy="89.124434"
     inkscape:document-units="px"
     inkscape:current-layer="layer1"
     showgrid="false"
     showguides="true"
     inkscape:guide-bbox="true"
     inkscape:window-width="1600"
     inkscape:window-height="837"
     inkscape:window-x="-8"
     inkscape:window-y="-8"
     inkscape:window-maximized="1"
     fit-margin-top="30"
     fit-margin-left="30"
     fit-margin-right="30"
     fit-margin-bottom="30" />
  <metadata
     id="metadata7">
    <rdf:RDF>
      <cc:Work
         rdf:about="">
        <dc:format>image/svg+xml</dc:format>
        <dc:type
           rdf:resource="http://purl.org/dc/dcmitype/StillImage" />
        <dc:title></dc:title>
      </cc:Work>
    </rdf:RDF>
  </metadata>
  <g
     inkscape:label="Layer 1"
     inkscape:groupmode="layer"
     id="layer1"
     transform="translate(-15.395409,-56.631474)">
    <path
       style="fill:none;stroke:#000000;stroke-width:7.9216013;stroke-linecap:butt;stroke-linejoin:miter;stroke-miterlimit:4;stroke-opacity:1;stroke-dasharray:none"
       d="m 181.50527,196.17875 c -0.10613,13.51549 -11.66475,23.29232 -21.67619,30.67193 -16.59687,11.10001 -36.30031,19.79901 -56.64666,18.61834 C 79.853407,241.18659 58.080573,228.1878 43.868253,209.07232 39.283029,202.00511 32.165045,195.706 31.035445,187.05808 27.347243,162.2669 28.882546,135.57054 41.939981,113.55378 54.586802,90.784462 79.933017,75.334609 106.20132,76.451977 c 19.87614,0.274334 38.26847,9.387328 54.13252,20.71497 8.35931,5.075303 17.37539,11.702693 18.95968,22.082573 -22.11602,-0.59204 -41.10134,12.96319 -57.85995,25.83084 -6.96014,5.87336 -16.72846,9.47214 -20.71142,18.19546 0.92828,8.5465 12.71534,9.76876 19.18226,13.27373 20.1965,7.57252 41.1828,12.73911 61.60086,19.6292 z"
       id="path3773"
       inkscape:connector-curvature="0" />
    <g
       id="g4103"
       transform="translate(-24,-0.08326088)">
      <path
         inkscape:connector-curvature="0"
         id="path3843"
         d="m 222.92706,86.183008 c -2.11518,2.97247 -2.78939,7.27617 -4.19205,10.85914 -0.32202,-3.13476 -2.83049,-7.41574 -5.42721,-4.55758 -1.32539,2.14538 -1.42383,4.99179 -1.96502,7.533962 -2.12676,-3.632792 -2.22375,-8.952442 -4.79091,-11.975282 -1.97664,-0.15329 -4.4353,1.2297 -3.27505,4.06927 1.80692,5.35165 3.08892,12.110682 7.27995,15.346972 2.66712,1.37698 4.4359,-3.09786 5.38978,-4.41807 2.44243,2.96641 6.16254,0.50835 7.05536,-3.092652 1.5027,-4.05591 3.17219,-8.21442 3.93005,-12.5101 -0.92083,-1.24002 -2.73192,-1.57507 -4.0049,-1.25566 z"
         style="fill:#000000;fill-opacity:1;stroke:none" />
      <path
         inkscape:connector-curvature="0"
         id="path3845"
         d="m 233.65047,81.346388 c -4.16205,-0.006 -5.58823,5.74931 -5.14649,10.04529 0.26097,3.27468 -0.17805,8.53175 2.54517,9.998782 1.65927,-0.49173 3.83893,-0.57912 2.99432,-3.208912 -0.2169,-3.72887 -1.26313,-8.43445 -0.20586,-11.74276 3.35088,2.06951 2.0432,8.09966 2.37675,11.99854 -1.14226,4.345502 5.76109,3.722632 4.67862,-0.32554 0.21057,-5.8576 0.24732,-13.87149 -4.97806,-16.43986 -0.73273,-0.27263 -1.49789,-0.46036 -2.26445,-0.32554 z"
         style="fill:#000000;fill-opacity:1;stroke:none" />
      <path
         inkscape:connector-curvature="0"
         id="path3847"
         d="m 238.70338,90.554568 c -2.83613,1.17924 -6.31639,-0.1173 -8.81453,1.88349 -0.77224,1.82698 -0.42605,4.83442 1.70302,4.3018 2.69332,-0.45363 6.42673,0.24752 8.27181,-2.30204 0.31039,-1.34197 0.46265,-4.00832 -1.1603,-3.88325 z"
         style="fill:#000000;fill-opacity:1;stroke:none" />
      <path
         inkscape:connector-curvature="0"
         id="path3849"
         d="m 242.29657,71.603388 c -3.4412,-0.54347 -2.73528,4.4615 -1.94631,6.99915 1.48484,4.02515 0.71759,8.55582 2.05859,12.62636 0.23339,2.9826 1.33409,5.65774 1.53459,8.5571 1.76787,0.239762 5.31017,-0.17717 4.07977,-3.32517 -1.00989,-4.36412 -1.64148,-8.90347 -2.13345,-13.39372 -0.0281,-3.79385 -1.17442,-7.53267 -2.03989,-11.02191 -0.33933,-0.59777 -1.03626,-0.45687 -1.5533,-0.44181 z"
         style="fill:#000000;fill-opacity:1;stroke:none" />
      <path
         inkscape:connector-curvature="0"
         id="path3855"
         d="m 249.53908,80.695298 c -1.6167,3.60404 -5.10867,4.60386 -6.79336,8.02228 -0.12426,2.5503 3.57574,3.51047 4.73476,1.41843 2.60822,-1.81074 5.5961,-4.60324 6.17579,-8.34782 -0.93782,-1.20036 -3.01873,-1.99277 -4.11719,-1.09289 z"
         style="fill:#000000;fill-opacity:1;stroke:none" />
      <path
         inkscape:connector-curvature="0"
         id="path3857"
         d="m 245.44061,87.368908 c -1.60761,0.72823 -3.20681,3.72469 -0.93573,4.79011 3.18152,1.87606 6.39621,5.03691 9.78769,5.25518 1.69941,-1.42329 2.58817,-5.15896 -0.14972,-5.11566 -2.85689,-1.54361 -5.57828,-4.46684 -8.70224,-4.92963 z"
         style="fill:#000000;fill-opacity:1;stroke:none" />
      <path
         inkscape:connector-curvature="0"
         id="path3859"
         d="m 258.70919,75.207598 c -3.88556,-0.33044 -6.27858,5.07068 -4.86577,9.30119 0.82794,3.9229 1.93325,7.74197 2.35803,11.78927 2.10171,0.37771 4.92797,-0.17504 4.32305,-3.62747 -0.11232,-4.2237 -2.19052,-8.14108 -2.1896,-12.27757 3.56993,-1.16269 3.95833,4.5068 3.62022,7.48738 0.18902,2.67319 -0.53908,8.17861 2.81757,6.99922 3.19889,0.023 1.52643,-4.553 1.97334,-7.11534 0.66783,-6.28287 -2.11007,-13.58577 -8.03684,-12.55668 z"
         style="fill:#000000;fill-opacity:1;stroke:none" />
      <path
         inkscape:connector-curvature="0"
         id="path3861"
         d="m 264.95984,84.880838 c -3.17457,0.33718 -7.59159,0.84103 -8.98297,4.88313 0.27149,1.75823 2.28898,2.32446 3.33118,2.44156 2.2878,-2.18307 5.62668,-1.29199 7.86009,-2.86012 0.82881,-2.28745 0.50213,-5.35996 -2.2083,-4.46457 z"
         style="fill:#000000;fill-opacity:1;stroke:none" />
      <path
         inkscape:connector-curvature="0"
         id="path3865"
         d="m 252.47726,114.52839 c -2.36204,3.06734 -3.70193,7.57892 -5.20264,11.09167 -1.97802,-2.98849 -5.98322,-1.31836 -6.49393,2.34855 -0.95644,2.79768 -1.80901,-2.1925 -2.9756,-3.04613 -1.75665,-2.18282 -3.3427,-5.44562 -5.31492,-6.76662 -2.08233,-0.009 -4.12488,2.17078 -2.39546,4.58084 2.55776,3.72252 4.98833,7.87184 7.54195,11.48697 2.23031,2.48698 5.60459,0.60925 6.64365,-2.53457 -0.42521,3.50133 3.23275,6.01864 5.07162,3.02288 3.18432,-5.63348 4.41708,-12.65948 7.37352,-18.50937 -0.91348,-1.53172 -2.84316,-2.02486 -4.24819,-1.67422 z"
         style="fill:#000000;fill-opacity:1;stroke:none" />
      <path
         inkscape:connector-curvature="0"
         id="path3867"
         d="m 265.78327,113.45876 c -1.85886,0.45177 -0.32758,2.66049 -2.52645,1.23241 -4.17656,2.43145 -7.83521,7.97644 -6.11965,13.97504 0.16815,2.78854 2.38135,3.89798 4.17333,2.3718 1.91931,-1.99253 -0.8516,-5.9945 0.95445,-8.51059 1.07277,-1.39823 3.60766,-5.05987 3.78033,-0.95337 0.83007,2.88269 1.32901,5.88963 1.38487,8.97565 -3.46547,-1.08432 -0.10681,2.73225 1.32873,3.25541 2.27592,1.84138 3.85388,-1.39785 3.3499,-3.99951 -0.24153,-5.53875 -0.79641,-12.17461 -4.41663,-15.92829 -0.58032,-0.43621 -1.24861,-0.50339 -1.90888,-0.41855 z m -5.22135,10.23131 c -0.68612,2.29891 -0.64676,-0.74366 0,0 z"
         style="fill:#000000;fill-opacity:1;stroke:none" />
      <path
         inkscape:connector-curvature="0"
         id="path3869"
         d="m 269.54489,122.22513 c -3.62194,0.79316 -7.4879,0.5488 -11.04156,1.86024 -1.16242,2.1137 -0.5347,5.52118 1.96502,4.74361 3.34751,-0.70566 6.93584,-0.43443 10.08712,-1.99976 0.45944,-1.48304 0.77184,-4.57056 -1.01058,-4.60409 z"
         style="fill:#000000;fill-opacity:1;stroke:none" />
      <path
         inkscape:connector-curvature="0"
         id="path3871"
         d="m 274.14865,101.3207 c -3.83019,-0.41983 -2.70302,5.76114 -2.56388,8.67336 0.98536,8.51429 1.61729,17.46653 4.28562,25.57828 1.87047,1.2397 5.48959,-0.70449 3.83648,-3.65072 -1.5912,-9.88673 -2.27206,-20.02207 -3.76162,-29.88008 -0.43544,-0.75278 -1.1068,-0.81764 -1.7966,-0.72084 z"
         style="fill:#000000;fill-opacity:1;stroke:none" />
      <path
         inkscape:connector-curvature="0"
         id="path3873"
         d="m 282.96319,113.31924 c -2.41015,3.74048 -6.56297,6.22169 -8.29053,10.25456 0.359,1.24236 2.26928,4.42494 3.63061,2.34855 3.29243,-2.86046 6.73704,-6.39147 8.75839,-10.6266 -0.11246,-1.76235 -3.06409,-2.94302 -4.09847,-1.97651 z"
         style="fill:#000000;fill-opacity:1;stroke:none" />
      <path
         inkscape:connector-curvature="0"
         id="path3875"
         d="m 277.40498,122.10886 c -1.92504,0.83321 -3.24304,4.38724 -0.58015,5.20867 3.60894,2.24867 7.59659,3.38854 11.3597,4.85988 1.47849,-1.02497 2.91181,-4.45566 0.54273,-4.99939 -3.71616,-1.94717 -7.66267,-3.14476 -11.32228,-5.3947 l 0,0.32554 z"
         style="fill:#000000;fill-opacity:1;stroke:none" />
      <path
         inkscape:connector-curvature="0"
         id="path3877"
         d="m 295.76391,109.31973 c -5.09101,-0.31012 -7.29745,6.99848 -6.98051,12.32408 0.132,2.53625 -0.69737,8.0338 2.60132,7.09216 3.43526,-0.005 2.04779,-5.68633 2.30188,-8.6036 -0.52525,-2.06301 0.51332,-4.14846 1.44101,-5.58072 2.85489,-0.60245 3.82641,4.04319 4.52892,6.72011 0.95039,2.54626 -0.32331,7.09345 2.02117,8.06879 2.01078,0.437 3.82346,-1.05807 3.16275,-3.81349 -0.0548,-6.43859 -2.22049,-14.48286 -7.80396,-16.13758 -0.41687,-0.10484 -0.84632,-0.1111 -1.27258,-0.0697 z"
         style="fill:#000000;fill-opacity:1;stroke:none"
         sodipodi:nodetypes="ccccccccccc" />
      <path
         inkscape:connector-curvature="0"
         id="path3879"
         d="m 302.37013,118.66743 c -3.85118,1.31412 -8.3268,-0.15754 -11.82757,2.23228 -0.77122,2.64607 0.89995,5.47811 3.29375,4.11578 3.17782,-0.53909 7.66403,0.58253 9.86255,-2.55783 0.13064,-1.31984 0.23463,-3.95096 -1.32873,-3.79023 z"
         style="fill:#000000;fill-opacity:1;stroke:none" />
    </g>
    <g
       id="g3027"
       transform="translate(18,3.4142135)">
      <path
         inkscape:connector-curvature="0"
         d="m 290.74607,145.35403 c -1.96713,0.24629 -3.84833,-0.71647 -5.43285,-1.77943 -1.89535,-1.40911 -3.33081,-3.29327 -4.71533,-5.17961 -1.48789,-2.08824 -2.37302,-4.46412 -2.87351,-6.95864 -0.40385,-1.74919 -0.42634,-3.53841 -0.3592,-5.32149 0.0238,-1.25098 -0.0131,-2.52547 0.41017,-3.72413 0.10126,-0.28676 0.24288,-0.55765 0.36431,-0.83647 0.17985,-0.2776 0.29951,-0.60524 0.53956,-0.8328 1.61274,-1.52887 3.30413,-2.47014 5.37519,-3.13977 1.88455,-0.50997 3.844,-0.62116 5.78653,-0.67845 1.75596,-0.0278 3.51808,-0.006 5.26575,0.1768 1.75011,0.26198 3.14019,1.24699 4.47415,2.33318 1.12327,1.00343 2.07849,2.17625 2.87237,3.45217 0.86337,1.38396 1.28382,2.92893 1.5174,4.52649 0.1223,1.29086 0.20723,2.58139 -0.0453,3.86479 -0.13509,0.6866 -0.37637,1.33357 -0.6007,1.99244 -0.5542,1.93179 -1.63462,3.59028 -2.79043,5.20483 -1.19607,1.61184 -2.69643,2.88104 -4.40963,3.88234 -0.21194,0.0973 -0.43285,0.17709 -0.63581,0.29196 -0.0996,0.0564 -0.17685,0.14537 -0.26527,0.21805 -0.14904,0.0855 -0.29411,0.17826 -0.44711,0.25642 -0.55373,0.28288 -1.14997,0.4665 -1.73207,0.68003 -1.27901,0.4199 -2.62158,0.51292 -3.9572,0.54387 -0.0914,0.0193 -0.18276,0.0387 -0.27414,0.058 -0.42467,-0.006 -0.34775,-6.01128 0.0769,-6.00584 l 0,0 c 0.21243,-0.0217 0.42485,-0.0435 0.63728,-0.0652 0.84118,-0.0959 1.69936,-0.19405 2.50101,-0.47567 0.44166,-0.16134 0.76157,-0.44435 1.16758,-0.67891 0.19352,-0.11181 0.39903,-0.20213 0.59141,-0.31586 0.0838,-0.0495 0.15682,-0.11521 0.23524,-0.17281 0.31087,-0.24194 0.59284,-0.51761 0.8689,-0.79938 0.11191,-0.11422 0.43575,-0.46816 0.32378,-0.35399 -0.51022,0.52026 -1.1966,1.27804 -0.34101,0.34095 0.60788,-0.68419 1.08915,-1.46314 1.57748,-2.23616 0.1206,-0.19089 0.26236,-0.37008 0.36101,-0.57318 0.11563,-0.23805 0.18568,-0.49564 0.27851,-0.74346 0.30613,-0.8969 0.19194,-0.61442 0.52322,-1.40754 0.10244,-0.24526 0.33706,-0.73258 0.37441,-1.01762 0.0333,-0.25415 -0.0181,-0.91099 -0.0343,-1.17651 -0.0403,-0.91619 -0.0914,-1.73481 -0.65355,-2.50588 -0.41664,-0.79845 -0.99864,-1.5035 -1.62589,-2.14635 -0.55385,-0.45158 -1.00683,-0.84957 -1.75818,-0.86049 -1.57284,-0.0796 -3.13661,-0.0436 -4.71051,0.0102 -1.40889,0.0432 -2.84919,0.0413 -4.18242,0.56357 -0.60752,0.23772 -1.19436,0.51349 -1.78267,0.7957 -0.17471,0.0838 -0.63537,0.41535 -0.52018,0.25954 1.08393,-1.46619 1.28449,-0.52974 1.06122,-1.29982 -0.34861,-0.64211 -0.35065,1.78395 -0.31024,1.82096 0.0577,1.37261 0.0553,2.74843 0.16212,4.11723 0.53598,1.79927 1.29789,3.51399 2.31334,5.0973 0.55129,0.91429 1.13586,1.76941 1.75474,2.63786 0.1261,0.17695 0.23019,0.37041 0.37047,0.53635 0.0848,0.10034 0.63316,0.59376 0.76478,0.71336 0.83199,0.4775 1.66805,0.9891 2.65087,1.0361 0.41542,0.0524 -0.32676,5.92747 -0.74219,5.87499 z"
         id="path3929"
         style="fill:#000000;fill-opacity:1;stroke:none" />
      <path
         inkscape:connector-curvature="0"
         d="m 285.50923,166.43893 c 1.3848,-0.15729 2.7869,-0.1249 4.17796,-0.0779 1.20402,0.0535 2.40839,0.006 3.61244,4.1e-4 1.10597,-0.0179 2.21129,0.0369 3.31647,0.0705 0.85212,-0.0115 1.70426,0.009 2.55631,0.0193 1.44266,0.19465 2.77281,0.94855 3.53146,2.2212 0.19665,0.32989 0.34199,0.68777 0.51298,1.03166 0.55051,1.69539 0.57229,3.48676 0.63232,5.25048 -0.0346,1.90595 0.0494,3.8132 -0.0442,5.71747 -0.0711,1.78235 -0.29248,3.52905 -0.72889,5.25777 -0.30866,0.93838 -0.36966,1.9243 -0.54457,2.88923 -0.1856,1.00346 -0.61782,1.93665 -1.02706,2.86557 -0.26322,1.23359 -0.86485,2.32851 -1.43819,3.43499 -0.64669,1.04623 -1.29046,2.09379 -1.9915,3.10461 -1.33524,1.64604 -2.62142,2.4986 -4.53738,3.18674 -0.31845,0.16528 -0.98896,0.12816 -1.25802,0.44637 -0.0319,0.0377 0.0301,0.11025 -10e-4,0.14793 -0.16982,0.20115 -0.78894,0.46572 -0.93829,0.53991 -0.93282,0.39687 -1.85052,0.80005 -2.78657,1.19139 -0.51028,0.48056 -1.69897,0.47431 -2.18382,0.80999 -0.0541,0.0375 -0.0723,0.10999 -0.10848,0.16499 -0.92978,0.53139 -1.90755,0.91935 -2.94643,1.17428 -0.56123,0.15572 -1.14963,0.12174 -1.71991,0.19818 -0.6365,0.0853 0.0257,0.006 -0.31504,0.16337 -0.13347,0.0616 -0.27929,0.0919 -0.41893,0.13793 -0.99381,0.29355 -2.02837,0.35584 -3.05598,0.4199 -0.88171,0.0417 -1.76416,-0.001 -2.64604,0.0195 -0.8291,0.0111 -1.65795,-0.0259 -2.48684,-0.004 -0.90568,-0.0593 -1.70885,-0.32908 -2.45081,-0.87537 -0.27832,-0.20493 -0.49657,-0.48087 -0.74484,-0.72131 -0.28137,-0.31172 4.12713,-4.29096 4.40851,-3.97923 l 0,0 c -0.0874,-0.0586 -0.16911,-0.1269 -0.26222,-0.17603 -0.29071,-0.15342 -0.59151,-0.19304 -0.19599,-0.18026 0.82817,0.0233 1.65653,-0.0101 2.48493,0.004 0.77553,0.0202 1.55123,-0.0107 2.32574,-0.052 0.65659,-0.043 1.29039,-0.20434 1.91578,-0.40605 0.83282,-0.22423 1.68971,-0.27494 2.51791,-0.50557 0.69093,-0.30558 1.33424,-0.71757 2.02528,-1.02501 0.91134,-0.31769 1.80585,-0.64163 2.67952,-1.05396 0.75235,-0.29313 1.46517,-0.70631 2.18836,-1.05999 0.849,-0.60229 1.81017,-0.92441 2.78307,-1.26238 0.17178,-0.10027 0.35377,-0.18466 0.51583,-0.29999 0.45529,-0.32404 1.40325,-1.69724 -0.24519,0.29346 0.43449,-0.32962 0.61238,-0.7205 0.91476,-1.17644 0.27193,-0.41003 0.60108,-0.78506 0.80634,-1.23887 0.47623,-0.58567 0.0475,-0.0134 0.48486,-0.76778 0.29459,-0.50816 0.64409,-0.97804 0.76315,-1.57374 0.085,-0.28852 0.66792,-2.01513 0.84975,-2.15215 0.0325,-0.0245 0.072,0.0383 0.10797,0.0574 0.18184,-1.00217 0.2277,-2.01682 0.38077,-3.02613 0.23875,-1.47337 0.57932,-2.9323 0.57547,-4.43481 0.0867,-1.80663 0.0631,-3.61571 0.0578,-5.42358 0.028,-1.25872 0.0324,-2.51647 0.093,-3.77392 0.2751,0.14269 0.52112,0.20974 0.80552,0.31958 0.0136,0.005 -0.0205,0.0205 -0.0308,0.0308 -0.85367,0.0107 -1.70744,0.0308 -2.56119,0.0193 -1.11111,0.0335 -2.22238,0.0883 -3.33428,0.0705 -1.20407,-0.006 -2.40848,-0.053 -3.61254,4.1e-4 -1.38439,0.0463 -2.78035,0.081 -4.15827,-0.078 -0.41963,-0.053 0.33007,-5.98744 0.74969,-5.93443 z"
         id="path3937"
         style="fill:#000000;fill-opacity:1;stroke:none" />
      <path
         inkscape:connector-curvature="0"
         d="m 288.3722,170.48087 c 0.14755,1.47442 0.17372,2.96359 0.16208,4.44531 0.007,1.59498 -0.0294,3.18857 -0.0278,4.78359 -0.009,1.14285 -0.10558,2.28326 -0.10259,3.42608 -0.0115,0.96358 -0.006,1.92769 -0.0947,2.88793 -0.10097,0.7413 -0.22329,1.47933 -0.24438,2.22814 0.0258,0.90864 -0.1162,1.80046 -0.22604,2.69772 -0.0543,0.8508 -0.22301,1.68383 -0.34756,2.52454 -0.0703,1.39246 -0.77875,2.49573 -1.53974,3.59735 -0.62689,0.99507 -1.41584,1.78246 -2.25284,2.62877 -0.36801,0.37208 -0.80018,0.64652 -1.14601,1.0435 0.28404,-0.28566 0.5563,-0.58356 0.85215,-0.857 0.10724,-0.0991 -0.19217,0.22004 -0.28498,0.33279 -0.10894,0.13237 -0.21436,0.2676 -0.3202,0.40247 -0.37997,0.48419 -0.75237,0.9335 -1.20082,1.35504 -0.94439,1.11201 -1.78878,2.24527 -2.88359,3.24248 -0.20348,0.18534 -0.47054,0.28569 -0.70581,0.42854 -0.17613,0.10239 -0.35226,0.20477 -0.52839,0.30717 -0.39891,0.14896 -2.50553,-5.49247 -2.10662,-5.64142 l 0,0 c 0.0935,-0.0724 0.18699,-0.14472 0.28049,-0.21709 0.33518,-0.54119 0.0506,-0.0624 -0.78199,0.83136 -0.11154,0.11972 0.21052,-0.25056 0.31284,-0.37824 0.38175,-0.47633 0.73376,-0.97512 1.09664,-1.46568 0.13055,-0.158 0.25113,-0.3248 0.39165,-0.474 0.10606,-0.11261 0.23069,-0.20617 0.34603,-0.30926 0.0988,-0.0791 0.20895,-0.14586 0.29632,-0.23745 0.76839,-0.80545 1.16301,-1.98809 2.21073,-2.53728 0.27915,-0.25039 0.56382,-0.49481 0.83675,-0.75198 0.0996,-0.0939 0.37862,-0.39471 0.2912,-0.28941 -1.57413,1.89597 -0.73825,0.78648 -0.33746,0.40838 0.056,-0.0858 0.50645,-0.78658 0.60032,-0.89838 0.034,-0.0404 0.27744,-0.25486 0.37447,-0.26445 0.0453,-0.004 0.0923,0.0878 0.12482,0.0559 0.0673,-0.066 0.0608,-0.17834 0.0912,-0.26751 0.11322,-0.82294 0.32509,-1.61558 0.34928,-2.44738 0.0983,-0.76415 0.29251,-1.49767 0.25276,-2.271 0.045,-0.90888 0.0631,-1.82212 0.21769,-2.72132 0.0239,-0.11519 0.0396,-0.23239 0.0718,-0.34557 0.012,-0.0424 0.0553,-0.074 0.0598,-0.11787 0.0584,-0.56843 -0.073,-1.15584 -0.024,-1.7258 0.003,-1.13419 -0.0937,-2.26593 -0.10259,-3.40016 0.001,-1.59268 -0.0346,-3.18393 -0.0278,-4.77658 -0.0118,-1.49543 0.0162,-2.99789 0.16208,-4.48625 -0.0527,-0.41752 5.85197,-1.16347 5.90471,-0.74594 z"
         id="path3939"
         style="fill:#000000;fill-opacity:1;stroke:none" />
    </g>
    <g
       id="g3032"
       transform="translate(18,3.4142135)">
      <path
         style="fill:#000000;fill-opacity:1;stroke:none"
         d="m 399.55566,114.84781 c 1.80752,13.15442 0.15825,26.4459 0.41132,39.66121 -0.16511,5.61013 -0.28465,11.32107 -2.10375,16.688 -0.0636,4.35666 -0.68596,8.95005 0.92616,13.10705 -2.31169,1.68814 -6.65354,4.01606 -6.53829,-0.78127 -0.59432,-4.59979 -0.64407,-9.34011 -0.13477,-13.95904 1.12436,-3.43539 1.05707,-6.96365 1.04006,-10.54138 0.3386,-13.9327 -1.25279,-27.89881 0.15979,-41.80054 -0.40742,-3.05247 4.37553,-2.27304 6.23948,-2.37403 z"
         id="path3947"
         inkscape:connector-curvature="0" />
      <path
         inkscape:connector-curvature="0"
         d="m 412.99103,143.09553 c 0.32848,2.06468 0.33953,4.16165 0.3309,6.24713 0.0535,2.71029 0.0341,5.42261 0.0112,8.13341 -0.0136,2.26841 -0.0833,4.53481 -0.11704,6.80285 0.0425,1.65499 0.10915,3.30962 0.19981,4.9628 0.003,1.28404 0.0292,2.56826 0.006,3.85217 0.004,1.04298 -0.004,2.08538 -0.031,3.12855 0.0269,1.00738 -0.004,2.01016 -0.1609,3.00612 -0.0588,0.83494 -0.28393,1.6406 -0.44228,2.45848 -0.0992,0.8425 -0.0972,1.69142 -0.2116,2.532 -0.12711,1.52254 -0.8761,2.77571 -1.83498,3.91583 -0.5297,0.51255 -1.03127,1.05586 -1.5891,1.53765 -0.88368,0.76323 -2.3521,1.00259 -3.4752,1.12757 -1.13847,0.14128 -2.26363,-0.0162 -3.39487,-0.12494 -0.84503,-0.092 -1.691,-0.18548 -2.54181,-0.1811 -0.81174,-0.002 -1.62327,-0.0349 -2.43483,-0.0125 -0.89415,-0.055 -1.6841,-0.39466 -2.4826,-0.76257 -0.37729,-0.20172 2.47545,-5.53746 2.85274,-5.33574 l 0,0 c 0.12532,0.06 0.24719,0.11829 0.37721,0.16547 0.85948,0.0229 1.71951,-0.0153 2.57897,0.0196 1.00114,0.0561 2.00573,0.0747 3.00094,0.20958 0.66849,0.0948 1.33835,0.20959 2.00643,0.0426 0.16076,-0.046 0.39971,-0.0869 0.51539,-0.22777 0.0546,-0.0666 0.18599,-0.28621 0.12357,-0.22689 -0.29267,0.27813 -0.56696,0.57499 -0.85044,0.86248 0.21167,-0.19988 0.50979,-0.58416 0.79742,-0.68861 0.0475,-0.0172 0.10584,0.0429 0.1503,0.0189 0.0845,-0.0456 0.20624,-0.31859 0.24041,-0.38598 0.0314,-0.15779 0.10358,-0.30736 0.12042,-0.46736 0.0684,-0.64982 -0.0335,-1.32016 0.0925,-1.96783 0.0904,-0.85243 0.27331,-1.67747 0.43768,-2.51196 0.0399,-0.27497 0.14466,-0.58688 0.16668,-0.85979 0.0372,-0.46123 -0.0491,-0.93258 -0.004,-1.39449 -0.0254,-1.03265 -0.0294,-2.06466 -0.0302,-3.09696 -0.0323,-1.21023 -0.027,-2.41983 -0.12598,-3.62779 -0.0535,-1.72822 -0.29955,-3.44197 -0.38173,-5.1686 -0.0337,-2.25818 -0.1035,-4.5147 -0.11704,-6.77327 -0.0229,-2.71175 -0.0421,-5.42502 0.0113,-8.13625 -0.009,-2.11348 0.007,-4.23728 0.3309,-6.33074 -0.0525,-0.41543 5.82252,-1.15761 5.875,-0.74219 z"
         id="path3949"
         style="fill:#000000;fill-opacity:1;stroke:none" />
      <path
         style="fill:#000000;fill-opacity:1;stroke:none"
         d="m 411.18186,120.35947 c 3.0851,-2.28439 6.58809,-3.95843 10.53715,-3.85719 4.22081,-0.23084 8.55677,-0.52003 12.7166,0.30383 3.52172,1.39283 7.18437,2.47735 10.43882,4.54834 3.16212,1.9764 6.13398,4.46809 8.44556,7.39529 2.49559,3.98858 5.04588,8.2004 5.11122,13.06284 1.46831,7.41007 0.73735,15.00473 0.92646,22.50516 -0.14152,4.47279 0.27533,8.89073 0.87926,13.31295 0.0932,4.97941 0.606,10.27718 -1.38722,14.95761 -1.93622,3.47966 -4.19848,1.58382 -4.03916,-1.68336 0.6148,-3.05 -1.5583,-1.11235 -1.17927,-0.74633 0.89278,-4.40518 0.73043,-8.99261 0.29548,-13.45206 -1.53727,-5.3759 -0.63176,-10.98483 -0.85878,-16.48526 -0.0342,-5.81631 0.44959,-11.69714 -0.66513,-17.44071 -0.0131,-3.9985 -2.37345,-7.33815 -4.17558,-10.71456 -2.94116,-2.67483 -5.81193,-5.55501 -9.61425,-6.98373 -3.55659,-1.76118 -7.36331,-3.39239 -11.45057,-2.73231 -3.29615,0.17324 -6.72965,0.0894 -9.86921,1.18285 -2.40414,1.72392 -7.07205,5.65765 -8.06921,0.51769 -0.2125,-1.50366 0.84108,-2.82633 1.95783,-3.69105 z"
         id="path3951"
         inkscape:connector-curvature="0" />
      <path
         style="fill:#000000;fill-opacity:1;stroke:none"
         d="m 397.67161,112.42332 c 3.51132,-0.28462 7.94338,-1.45293 10.67509,1.41166 2.66379,2.45822 3.53126,6.07178 3.3111,9.57161 0.66012,3.04919 1.08137,8.35878 -3.3811,5.34406 -1.68816,-1.47254 -2.40086,0.12698 -2.15771,-1.2299 -1.02224,-3.05398 0.3458,-7.62961 -2.02992,-9.6337 -1.32966,-0.13748 -8.41997,2.27707 -6.79414,-2.50959 0.0895,-0.96809 -0.0547,-2.06361 0.37668,-2.95414 z"
         id="path3953"
         inkscape:connector-curvature="0" />
      <path
         style="fill:#000000;fill-opacity:1;stroke:none"
         d="m 408.60397,144.32532 c 0.72979,-3.57162 3.3843,-6.93506 7.07109,-7.69745 2.48452,-0.77409 4.2171,-3.12695 7.045,-3.12027 2.49982,0.002 4.85045,-0.31337 7.29482,-0.74589 2.77149,-0.25331 5.39529,0.96311 8.18036,0.80506 3.44154,1.43632 6.82612,3.98678 7.90576,7.73319 1.19636,3.96819 0.57259,8.20031 0.69654,12.28564 -0.0987,8.34843 0.17212,16.70405 -0.10329,25.04717 -0.54581,3.11854 -2.03533,6.0938 -1.71876,9.34975 -0.73931,3.09593 1.00451,3.38655 3.68967,2.94395 2.28044,0.66515 4.69062,-2.71972 5.39555,-2.97962 -1.27432,1.60429 0.39354,-1.78316 1.74534,-0.94738 1.80691,-0.19435 5.26147,-1.02289 3.93318,2.00081 -0.6239,3.31592 -3.89457,5.10066 -6.41459,6.90291 -2.94722,1.34249 -6.37594,1.12831 -9.51776,0.74028 -3.4564,-0.77071 -5.27013,-4.6477 -4.76129,-7.95301 -0.0599,-3.35662 0.25877,-6.8893 1.60671,-9.94808 0.35252,-4.72213 -0.0521,-9.51257 0.1504,-14.26209 -0.0139,-6.74329 -0.0109,-13.49286 -0.0405,-20.23133 -0.5696,-2.88349 -3.44429,-5.24628 -6.40896,-4.99318 -3.1101,-1.24017 -6.15947,0.23371 -9.31899,0.0797 -2.88381,-0.5896 -4.5825,2.17499 -7.16765,2.7348 -1.32473,0.17922 -3.75047,2.39851 -1.61779,0.28554 -1.03354,3.50046 -4.63309,2.71854 -7.40205,2.12704 l -0.24294,-0.15752 1.9e-4,-4e-5 z"
         id="path3955"
         inkscape:connector-curvature="0" />
    </g>
    <g
       id="g4073"
       transform="matrix(1.0551091,0,0,1.0551091,-1.0340639,-35.698415)">
      <path
         style="fill:#000000;fill-opacity:1;stroke:none"
         d="m 357.96495,127.40799 c -6.06212,-1.42041 -3.59645,5.31827 -2.76814,8.69723 3.76298,12.15387 11.88842,22.4364 15.37231,34.6813 1.73112,7.61149 4.19846,15.03504 6.067,22.60858 3.07904,7.00208 3.32788,15.06824 7.57802,21.5739 1.91638,5.09294 5.55881,9.09384 7.78383,13.98468 0.51445,3.42333 8.24801,1.57547 4.53139,-1.78547 -1.51526,-4.35467 -5.10335,-7.48599 -6.50546,-11.85615 -2.55358,-4.57765 -4.7619,-9.16671 -5.38118,-14.45505 -1.50913,-5.25777 -3.52036,-10.36388 -4.32536,-15.79415 -2.49674,-8.78155 -3.97318,-17.92365 -8.09958,-26.15556 -4.00354,-8.74603 -7.44196,-17.74824 -11.69014,-26.38003 -1.03117,-1.28016 -0.52993,-5.39202 -2.56269,-5.11928 z m 33.95058,102.54322 c 0.17742,0.42837 0.22667,-0.2514 0,0 z"
         id="path3961"
         inkscape:connector-curvature="0" />
      <path
         style="fill:#000000;fill-opacity:1;stroke:none"
         d="m 346.08175,137.83419 c -4.70202,0.97596 -0.0339,8.44513 0.70826,11.92307 1.89597,5.33638 4.15285,10.60888 4.78389,16.29171 1.35697,5.03459 3.84331,9.68926 4.9623,14.79523 2.0306,5.3506 4.09714,10.69976 6.71554,15.80085 2.0562,4.21584 3.59763,8.66486 4.72166,13.18661 1.67763,5.15406 3.72441,10.22222 5.82321,15.21209 1.11285,2.90933 2.69175,7.3736 4.43402,9.0066 6.66531,-0.92455 1.24862,-6.62865 0.21629,-10.33708 -1.49246,-3.95921 -3.02281,-7.89606 -4.47758,-11.86332 -1.83582,-3.99418 -2.32056,-8.4548 -4.06588,-12.51564 -2.341,-5.31969 -5.04517,-10.4804 -7.14454,-15.90047 -2.29774,-5.15486 -3.2504,-10.80629 -5.55952,-15.98055 -0.7083,-3.46813 -1.34322,-6.14061 -2.20934,-10.28615 -1.68824,-5.78602 -3.90634,-11.40194 -5.68749,-17.15678 0.45466,-2.6202 -1.42796,-2.1868 -3.22082,-2.17617 z"
         id="path3965"
         inkscape:connector-curvature="0" />
      <path
         style="fill:#000000;fill-opacity:1;stroke:none"
         d="m 349.86501,123.90625 c -5.25739,0.42302 -6.63708,6.35372 -6.51781,10.71418 -0.52793,2.8009 -0.33988,6.38231 3.20283,4.01385 3.25722,-1.59075 0.55834,-7.18215 2.58401,-9.85325 4.17085,-1.49622 5.02015,4.62783 9.06334,2.12105 3.27555,-3.02531 -4.81132,-7.76304 -8.33237,-6.99583 z m -1.09646,5.96629 c 0.30979,-0.16223 -0.27315,-0.10675 0,0 z"
         id="path3969"
         inkscape:connector-curvature="0" />
      <path
         style="fill:#000000;fill-opacity:1;stroke:none"
         d="m 393.41205,229.71908 c -2.41025,1.01495 -2.18479,5.79412 -5.1163,5.78573 -3.45033,0.89923 -5.57418,-2.37584 -7.20372,-3.77413 -5.15208,0.79289 -3.04823,5.38206 0.30603,7.1641 4.13864,2.00252 10.73435,2.43492 12.96428,-2.51904 2.48675,-2.74499 4.96869,-8.03741 -0.95029,-6.65668 l 0,2e-5 z m -5.08716,5.5613 c 0.0664,0.46855 0.47465,-0.2868 0,0 z"
         id="path3971"
         inkscape:connector-curvature="0" />
    </g>
    <g
       id="g3039"
       transform="translate(18,3.4142135)">
      <path
         inkscape:connector-curvature="0"
         id="path4003"
         d="m 538.88942,116.52323 c -6.84422,-0.0699 -13.65356,2.13567 -19.0385,6.31486 -4.27237,3.93419 -6.62266,9.45374 -9.28055,14.50099 -1.32338,3.06249 -2.9413,6.16298 -2.9501,9.57297 1.47401,0.87048 3.51083,0.93398 5.12936,0.53993 1.07269,-1.6598 1.25743,-3.87185 2.30038,-5.64196 1.75615,-4.28476 3.98999,-8.35196 6.50287,-12.22277 2.81232,-3.55897 7.36152,-5.33436 11.60855,-6.53788 6.90716,-0.80856 14.12686,-0.0383 20.32964,3.15744 2.44624,1.00473 5.16522,1.99596 6.96044,3.9908 2.4428,3.72824 4.42559,7.75761 4.9533,12.23065 0.9666,5.3505 1.03425,10.92143 1.70196,16.36231 1.14371,5.09814 0.70701,10.43312 1.57285,15.57589 -0.17058,3.46814 1.20932,6.97799 4.26433,8.84538 1.57732,1.79187 2.75727,3.99785 5.04364,5.02854 1.20977,0.71008 3.47657,1.87618 3.97907,-0.17607 0.39202,-1.21174 2.16575,-3.56462 0.12911,-4.09644 -3.12604,-0.85727 -4.04445,-4.32568 -6.67873,-5.93926 -1.74526,-1.3906 -0.93358,-4.13789 -1.12204,-6.11526 -0.1865,-2.19854 -0.64155,-4.31375 -0.34517,-6.54969 0.016,-4.89396 -1.47396,-9.59277 -1.36766,-14.48311 -0.54756,-7.06099 -1.5129,-14.39663 -5.06348,-20.60277 -1.85792,-3.56648 -4.75332,-6.44506 -8.37006,-8.20263 -6.25533,-3.0126 -13.21397,-5.64771 -20.25921,-5.55192 z m 29.95452,46.18772 c -0.28284,0.22127 -0.0578,-0.60638 0,0 z"
         style="fill:#000000;fill-opacity:1;stroke:none" />
      <path
         inkscape:connector-curvature="0"
         id="path4007"
         d="m 508.19541,145.42137 c -1.72878,1.63361 -2.37136,4.23468 -3.12222,6.47919 -1.56651,5.86862 -4.11022,11.60797 -3.64628,17.82949 0.11162,4.27356 -1.25031,8.72511 0.348,12.84103 0.96449,4.51453 3.89886,8.51165 8.08883,10.51391 5.27248,3.34039 11.17868,6.5337 17.66361,5.89535 7.17286,0.38089 14.52188,-0.6484 20.96265,-3.90071 5.05358,-1.25307 7.73094,-6.03508 11.42158,-9.222 -0.21044,-1.71656 -1.47026,-3.34283 -2.82878,-4.37815 -2.80427,1.02957 -3.82991,4.34845 -6.18575,5.92752 -3.30018,0.73946 -5.88779,3.36152 -9.30782,3.9134 -5.41497,2.07946 -11.26211,1.49233 -16.93761,1.69721 -3.95087,-0.26319 -7.48113,-2.42974 -10.66611,-4.60127 -2.23778,-1.18104 -4.95367,-2.15654 -5.67272,-4.90624 -1.9177,-3.49391 -1.53426,-7.53833 -1.12681,-11.36206 -0.0648,-4.38264 0.13806,-8.74122 1.72543,-12.84101 1.15506,-3.87847 2.16649,-7.84322 3.77953,-11.52639 -0.86388,-1.39622 -2.78514,-1.93886 -4.30772,-2.41796 l -0.18781,0.0587 z"
         style="fill:#000000;fill-opacity:1;stroke:none" />
      <path
         inkscape:connector-curvature="0"
         id="path4017"
         d="m 551.2257,137.93274 c -1.51659,0.19318 -4.17751,-0.0339 -3.8969,2.23015 -0.0906,4.59899 1.59831,9.01713 1.46721,13.63917 0.27329,4.54802 -0.79884,9.08079 -0.15992,13.62726 0.0562,2.33858 0.053,4.68768 0.10123,7.0193 1.77628,0.41397 3.8392,-0.0593 5.36411,-0.98597 0.63534,-5.57409 -0.4961,-11.3746 0.716,-16.93745 0.42821,-5.26743 -0.36567,-10.51577 -1.64327,-15.59936 -0.10322,-1.42142 0.10741,-3.45819 -1.94846,-2.9931 z"
         style="fill:#000000;fill-opacity:1;stroke:none" />
      <path
         inkscape:connector-curvature="0"
         id="path4035"
         d="m 538.37296,135.76127 c -3.73467,-0.42422 -7.33393,1.43867 -9.34319,4.55421 -3.0079,3.77722 -5.29347,8.03215 -6.98391,12.52409 -0.97477,3.67859 -4.12444,8.77022 -3.803,15.29418 0.26684,3.33422 -0.85101,7.20959 1.7137,9.89486 3.40654,4.86793 10.16839,6.26607 15.71673,5.00024 5.1454,-1.58213 9.19751,-5.43592 13.49169,-8.53389 1.24454,-1.33426 3.65063,-2.11948 3.90354,-4.04889 -0.81591,-0.85972 -2.12144,-0.90765 -3.20439,-1.22071 1.29065,-2.07833 -0.27355,-1.61234 -1.7137,-0.24649 -4.02514,2.66964 -7.8327,5.98798 -12.18369,8.29853 -3.11626,1.08475 -6.88027,1.08954 -9.70706,-0.57515 -1.18012,-1.27786 -2.75311,-2.6686 -2.1832,-4.62464 -0.15969,-4.70997 -0.0906,-9.56471 2.06583,-13.86219 1.93203,-4.65493 4.01424,-9.56843 7.01832,-13.78182 1.09266,-1.55892 2.0327,-3.9192 4.39056,-3.14575 3.47163,0.31671 7.33461,-0.71526 10.23538,1.64513 1.64622,0.20174 2.54897,-1.96402 3.50956,-3.02832 0.42701,-1.63518 -2.00405,-2.2648 -3.13396,-3.01658 -3.09397,-1.25452 -6.49593,-1.12534 -9.78921,-1.12681 z"
         style="fill:#000000;fill-opacity:1;stroke:none"
         sodipodi:nodetypes="cccccccccccccccccccc" />
      <path
         inkscape:connector-curvature="0"
         id="path4045"
         d="m 557.21191,185.45855 c -1.25216,0.92918 -3.09824,1.88097 -3.35697,3.5213 1.93988,3.1534 5.42808,4.94098 8.25158,7.19519 1.71692,0.94954 3.46335,2.24029 5.36412,2.55881 1.25122,-1.07963 2.45475,-2.70927 2.6175,-4.40162 -3.04646,-1.94575 -6.31115,-3.52605 -8.93978,-6.08461 -1.36078,-0.77783 -2.26544,-2.52946 -3.77212,-2.87123 l -0.16433,0.0822 z"
         style="fill:#000000;fill-opacity:1;stroke:none" />
      <path
         inkscape:connector-curvature="0"
         id="path4047"
         d="m 579.05571,186.94923 c -1.77444,1.76123 -3.79495,3.69997 -6.08011,4.96504 -2.05117,0.99595 -4.82642,0.21133 -6.56135,1.67848 -0.0822,1.56963 -0.26416,3.64604 0.83337,4.8594 4.73344,0.33927 9.58166,-1.30343 12.87622,-4.82418 1.33375,-1.35782 3.09233,-2.76763 3.50956,-4.55422 -1.02025,-1.21488 -3.06107,-1.92218 -4.57769,-2.12452 z"
         style="fill:#000000;fill-opacity:1;stroke:none" />
    </g>
  </g>
</svg>
